<?xml version="1.0" encoding="iso-8859-1"?>
<!-- Generator: Adobe Illustrator 19.0.0, SVG Export Plug-In . SVG Version: 6.00 Build 0)  -->
<svg version="1.1" id="Layer_1" xmlns="http://www.w3.org/2000/svg" xmlns:xlink="http://www.w3.org/1999/xlink" x="0px" y="0px"
	 viewBox="0 0 512.962 512.962" style="enable-background:new 0 0 512.962 512.962;" xml:space="preserve">
<g>
	<path style="fill:#E2E5E7;" d="M511.981,256.482c0,141.652-114.389,256.48-255.5,256.48s-255.5-114.828-255.5-256.48
		C0.981,114.828,115.37,0,256.481,0S511.981,114.827,511.981,256.482z"/>
	<path style="fill:#253744;" d="M467.952,256.482c0,117.242-94.676,212.281-211.471,212.281S45.01,373.724,45.01,256.482
		c0-117.244,94.676-212.283,211.471-212.283S467.952,139.237,467.952,256.482z"/>
	<path style="fill:#2D404E;" d="M458.634,256.482c0,112.078-90.502,202.93-202.152,202.93S54.33,368.56,54.33,256.482
		S144.832,53.55,256.482,53.55S458.634,144.403,458.634,256.482z"/>
	<path style="fill:#E2E5E7;" d="M366.124,256.482l7.291-4.209l2.49-1.438c-2.846-61.699-52.09-111.227-113.518-114.227l-1.695,2.939
		l-4.211,7.291l-4.209-7.291l-1.697-2.939c-61.426,2.998-110.672,52.525-113.518,114.225l2.49,1.439l7.291,4.209l-7.291,4.211
		l-2.49,1.438c2.848,61.699,52.094,111.225,113.52,114.223l1.695-2.938l4.209-7.291l4.211,7.291l1.695,2.938
		c61.426-3,110.67-52.525,113.518-114.223l-2.49-1.438L366.124,256.482z"/>
	<path style="fill:#253744;" d="M344.126,256.482c0,48.586-39.244,87.98-87.645,87.98s-87.645-39.395-87.645-87.98
		c0-48.588,39.244-87.982,87.645-87.982S344.126,207.894,344.126,256.482z"/>
	<ellipse style="fill:#2D404E;" cx="256.481" cy="256.482" rx="73.533" ry="73.814"/>
	<path style="fill:#E2E5E7;" d="M256.481,96.11l15.352-23.42l11.357-17.32c-8.744-1.158-17.65-1.82-26.709-1.82
		s-17.959,0.662-26.703,1.82l11.361,17.32L256.481,96.11z"/>
	<path style="fill:#E2E5E7;" d="M256.481,416.851l-15.342,23.42l-11.361,17.32c8.744,1.158,17.645,1.82,26.703,1.82
		c9.058,0,17.965-0.662,26.709-1.82l-11.357-17.32L256.481,416.851z"/>
	<path style="fill:#E2E5E7;" d="M96.72,256.482L73.39,241.07l-17.25-11.395c-1.152,8.777-1.811,17.713-1.811,26.807
		s0.658,18.027,1.811,26.805l17.25-11.404L96.72,256.482z"/>
	<path style="fill:#E2E5E7;" d="M456.823,229.665l-17.26,11.404l-23.33,15.412l23.33,15.4l17.26,11.41
		c1.152-8.777,1.811-17.717,1.811-26.811S457.976,238.446,456.823,229.665z"/>
	<path style="opacity:0.1;fill:#2D404E;enable-background:new    ;" d="M467.95,256.601
		c-0.064,117.188-94.715,212.162-211.469,212.162c-0.562,0-1.119-0.016-1.68-0.021l41.033,41.191
		c109.088-16.93,195.365-103.123,212.877-212.414L467.95,256.601z"/>
	<path style="opacity:0.6;fill:#253744;enable-background:new    ;" d="M467.95,256.601L362.638,150.884L150.4,363.939
		l104.402,104.803c0.561,0.006,1.117,0.021,1.68,0.021C373.235,468.763,467.886,373.788,467.95,256.601z"/>
	<g>
		<g>
			<polygon style="fill:#DF584C;" points="362.601,150.884 324.312,218.98 286.028,287.071 256.481,257.411 226.935,227.751 
				294.765,189.321 			"/>
			<polygon style="fill:#B9483E;" points="324.312,218.98 362.601,150.884 256.481,257.411 286.028,287.071 			"/>
		</g>
		<g>
			<polygon style="fill:#D1D5D5;" points="150.362,363.939 218.198,325.501 286.028,287.071 256.481,257.411 226.935,227.751 
				188.651,295.841 			"/>
			<polygon style="opacity:0.1;fill:#2D404E;enable-background:new    ;" points="218.198,325.501 150.362,363.939 256.481,257.411 
				286.028,287.071 			"/>
		</g>
		<path style="fill:#2D404E;" d="M272.155,271.829c-8.295,8.32-21.74,8.32-30.037,0c-8.289-8.328-8.289-21.826,0-30.152
			c8.297-8.32,21.742-8.32,30.037,0C280.444,250.003,280.444,263.501,272.155,271.829z"/>
		<path style="fill:#E2E5E7;" d="M268.136,267.796c-6.076,6.094-15.92,6.094-21.998,0c-6.072-6.104-6.072-15.984,0-22.084
			c6.078-6.096,15.922-6.096,21.998,0C274.21,251.812,274.21,261.692,268.136,267.796z"/>
		<path style="opacity:0.1;fill:#2D404E;enable-background:new    ;" d="M268.136,245.712l-21.998,22.084
			c6.078,6.094,15.922,6.094,21.998,0C274.21,261.692,274.21,251.812,268.136,245.712z"/>
	</g>
</g>
<g>
</g>
<g>
</g>
<g>
</g>
<g>
</g>
<g>
</g>
<g>
</g>
<g>
</g>
<g>
</g>
<g>
</g>
<g>
</g>
<g>
</g>
<g>
</g>
<g>
</g>
<g>
</g>
<g>
</g>
</svg>
