<?xml version="1.0" encoding="iso-8859-1"?>
<!-- Generator: Adobe Illustrator 19.0.0, SVG Export Plug-In . SVG Version: 6.00 Build 0)  -->
<svg version="1.1" id="Layer_1" xmlns="http://www.w3.org/2000/svg" xmlns:xlink="http://www.w3.org/1999/xlink" x="0px" y="0px"
	 viewBox="0 0 368 368" style="enable-background:new 0 0 368 368;" xml:space="preserve">
<g transform="translate(18 18)">
	<path style="fill:#9CE0FF;" d="M166,342c97.2,0,176-78.8,176-176S263.2-10,166-10S-10,68.8-10,166S68.8,342,166,342z"/>
	<path style="fill:#8DDBFE;" d="M78,312.8c82.4,47.6,187.6,19.2,234.8-62.8C360.4,167.6,332,62.4,250,15.2
		C328,163.6,249.2,270,78,312.8z"/>
	<path style="fill:#61A1DD;" d="M166,350C64.4,350-18,267.6-18,166S64.4-18,166-18s184,82.4,184,184S267.6,350,166,350z M166-2
		C73.2-2-2,73.2-2,166s75.2,168,168,168s168-75.2,168-168S258.8-2,166-2z"/>
	<g>
		<path style="fill:#FFFFFF;" d="M189.6,193.6l-113.2,62l62-113.2"/>
		<path style="fill:#74B1EA;" d="M76.4,263.6c-2,0-4-0.8-5.6-2.4c-2.4-2.4-3.2-6.4-1.2-9.6l62-113.2c2-4,6.8-5.2,10.8-3.2
			s5.2,6.8,3.2,10.8l-49.2,89.6l89.2-48.8c4-2,8.8-0.8,10.8,3.2s0.8,8.8-3.2,10.8l-112.8,62C79.2,263.2,77.6,263.6,76.4,263.6z"/>
	</g>
	<g>
		<path style="fill:#FF793B;" d="M140.4,140.4l113.2-62l-62,113.2"/>
		<path style="fill:#C6490F;" d="M191.6,199.6c-1.2,0-2.8-0.4-4-0.8c-4-2-5.2-6.8-3.2-10.8l48.8-89.2l-88.8,48.8
			c-4,2-8.8,0.8-10.8-3.2s-0.8-8.8,3.2-10.8l113.2-62c3.2-1.6,6.8-1.2,9.6,1.2c2.4,2.4,3.2,6.4,1.2,9.6l-62,113.2
			C197.2,198,194.4,199.6,191.6,199.6z"/>
	</g>
	<path style="fill:#C6490F;" d="M189.6,197.6c-2,0-4-0.8-5.6-2.4l-47.6-47.6c-3.2-3.2-3.2-8,0-11.2s8-3.2,11.2,0l47.6,47.6
		c3.2,3.2,3.2,8,0,11.2C193.6,196.8,191.6,197.6,189.6,197.6z"/>
	<g>
		<path style="fill:#FFFFFF;" d="M166,42c-4.4,0-8-3.6-8-8v-4c0-4.4,3.6-8,8-8s8,3.6,8,8v4C174,38.4,170.4,42,166,42z"/>
		<path style="fill:#FFFFFF;" d="M166,310c-4.4,0-8-3.6-8-8v-4c0-4.4,3.6-8,8-8s8,3.6,8,8v4C174,306.4,170.4,310,166,310z"/>
		<path style="fill:#FFFFFF;" d="M302,174h-4c-4.4,0-8-3.6-8-8s3.6-8,8-8h4c4.4,0,8,3.6,8,8S306.4,174,302,174z"/>
		<path style="fill:#FFFFFF;" d="M34,174h-4c-4.4,0-8-3.6-8-8s3.6-8,8-8h4c4.4,0,8,3.6,8,8S38.4,174,34,174z"/>
		<path style="fill:#FFFFFF;" d="M262,270c-2,0-4-0.8-5.6-2.4l-2.8-2.8c-3.2-3.2-3.2-8,0-11.2s8-3.2,11.2,0l2.8,2.8
			c3.2,3.2,3.2,8,0,11.2C266,269.2,264,270,262,270z"/>
		<path style="fill:#FFFFFF;" d="M72.8,80.8c-2,0-4-0.8-5.6-2.4l-2.8-2.8c-3.2-3.2-3.2-8,0-11.2s8-3.2,11.2,0l2.8,2.8
			c3.2,3.2,3.2,8,0,11.2C76.8,80,74.8,80.8,72.8,80.8z"/>
	</g>
</g>
<g>
</g>
<g>
</g>
<g>
</g>
<g>
</g>
<g>
</g>
<g>
</g>
<g>
</g>
<g>
</g>
<g>
</g>
<g>
</g>
<g>
</g>
<g>
</g>
<g>
</g>
<g>
</g>
<g>
</g>
</svg>
