<?xml version="1.0" encoding="utf-8"?>
<!-- Generator: Adobe Illustrator 20.0.0, SVG Export Plug-In . SVG Version: 6.00 Build 0)  -->
<svg version="1.1" id="Capa_1" xmlns="http://www.w3.org/2000/svg" xmlns:xlink="http://www.w3.org/1999/xlink" x="0px" y="0px"
	 viewBox="0 0 378.9 378.9" style="enable-background:new 0 0 378.9 378.9;" xml:space="preserve">
<style type="text/css">
	.st0{fill:#F2F2F2;}
	.st1{fill:#A4ABB1;}
	.st2{fill:#D7DBDE;}
	.st3{fill:#1BB7EA;}
	.st4{fill:#1F4254;}
	.st5{fill:#C5CED3;}
</style>
<path class="st0" d="M189.4,15.4c-96,0-174.1,78.1-174.1,174.1c0,96,78.1,174.1,174.1,174.1s174.1-78.1,174.1-174.1
	C363.5,93.5,285.4,15.4,189.4,15.4z"/>
<g>
	<path class="st1" d="M181.8,35.8v30.7c0,4.2,3.4,7.7,7.7,7.7s7.7-3.4,7.7-7.7V35.8c0-4.2-3.4-7.7-7.7-7.7
		C185.2,28.2,181.8,31.6,181.8,35.8"/>
	<path class="st1" d="M181.8,312.3V343c0,4.2,3.4,7.7,7.7,7.7s7.7-3.4,7.7-7.7v-30.7c0-4.2-3.4-7.7-7.7-7.7
		C185.2,304.6,181.8,308.1,181.8,312.3"/>
	<path class="st1" d="M343,181.8h-30.7c-4.2,0-7.7,3.4-7.7,7.7s3.4,7.7,7.7,7.7H343c4.2,0,7.7-3.4,7.7-7.7S347.3,181.8,343,181.8"/>
	<path class="st1" d="M66.6,181.8H35.8c-4.2,0-7.7,3.4-7.7,7.7c0,4.2,3.4,7.7,7.7,7.7h30.7c4.2,0,7.7-3.4,7.7-7.7
		C74.2,185.2,70.8,181.8,66.6,181.8"/>
</g>
<g>
	<path class="st2" d="M352.3,127.8l-50.4-50.4l-61.3,162.3l72.4,72.3c31.3-31.5,50.6-74.8,50.6-122.6
		C363.5,167.8,359.5,147,352.3,127.8z M343,197.1h-30.7c-4.2,0-7.7-3.4-7.7-7.7s3.4-7.7,7.7-7.7H343c4.2,0,7.7,3.4,7.7,7.7
		S347.3,197.1,343,197.1z"/>
	<polygon class="st2" points="301.5,77 301.4,77 301.4,77.1 	"/>
</g>
<path class="st3" d="M211.6,210.7c-5.6,5.8-13.4,9.4-22.1,9.4c-17,0-30.7-13.8-30.7-30.7c0-8.7,3.6-16.5,9.4-22.1l-29-29L77.6,301.3
	l162.9-61.5L211.6,210.7z"/>
<path class="st4" d="M139.2,138.3l29,29c5.5-5.3,13-8.6,21.3-8.6c17,0,30.7,13.8,30.7,30.7c0,8.3-3.3,15.8-8.6,21.3l29,29
	l61.5-162.9L139.2,138.3z"/>
<path class="st5" d="M189.4,15.4c96,0,174.1,78.1,174.1,174.1c0,96-78.1,174.1-174.1,174.1S15.4,285.4,15.4,189.4
	C15.4,93.5,93.4,15.4,189.4,15.4 M189.4,0C84.8,0,0,84.8,0,189.4c0,104.6,84.8,189.4,189.4,189.4c104.6,0,189.4-84.8,189.4-189.4
	C378.9,84.8,294.1,0,189.4,0"/>
</svg>
