<?xml version="1.0" encoding="iso-8859-1"?>
<!-- Generator: Adobe Illustrator 19.0.0, SVG Export Plug-In . SVG Version: 6.00 Build 0)  -->
<svg version="1.1" id="Capa_1" xmlns="http://www.w3.org/2000/svg" xmlns:xlink="http://www.w3.org/1999/xlink" x="0px" y="0px"
	 viewBox="0 0 378.88 378.88" style="enable-background:new 0 0 378.88 378.88;" xml:space="preserve">
<path style="fill:#F2F2F2;" d="M189.44,15.355c-95.99,0-174.08,78.1-174.08,174.08c0,95.99,78.09,174.085,174.08,174.085
	s174.08-78.095,174.08-174.085C363.52,93.455,285.43,15.355,189.44,15.355z"/>
<g>
	<path style="fill:#A4ABB1;" d="M181.76,35.84v30.72c0,4.239,3.441,7.68,7.68,7.68c4.239,0,7.68-3.441,7.68-7.68V35.84
		c0-4.244-3.441-7.68-7.68-7.68C185.201,28.16,181.76,31.596,181.76,35.84"/>
	<path style="fill:#A4ABB1;" d="M181.76,312.32v30.72c0,4.239,3.441,7.68,7.68,7.68c4.239,0,7.68-3.441,7.68-7.68v-30.72
		c0-4.245-3.441-7.68-7.68-7.68C185.201,304.64,181.76,308.076,181.76,312.32"/>
	<path style="fill:#A4ABB1;" d="M343.04,181.76h-30.72c-4.239,0-7.68,3.436-7.68,7.675c0,4.239,3.441,7.685,7.68,7.685h30.72
		c4.239,0,7.68-3.446,7.68-7.685C350.72,185.196,347.279,181.76,343.04,181.76"/>
	<path style="fill:#A4ABB1;" d="M66.56,181.76H35.84c-4.239,0-7.68,3.436-7.68,7.68c0,4.239,3.441,7.68,7.68,7.68h30.72
		c4.239,0,7.68-3.441,7.68-7.68C74.24,185.196,70.799,181.76,66.56,181.76"/>
</g>
<g>
	<path style="fill:#D7DBDE;" d="M352.251,127.805L301.85,77.399l-61.312,162.314l72.351,72.346
		c31.278-31.488,50.632-74.839,50.632-122.624C363.52,167.752,359.532,146.97,352.251,127.805z M343.04,197.12h-30.72
		c-4.239,0-7.68-3.446-7.68-7.685c0-4.239,3.441-7.675,7.68-7.675h30.72c4.239,0,7.68,3.436,7.68,7.675
		C350.72,193.674,347.279,197.12,343.04,197.12z"/>
	<polygon style="fill:#D7DBDE;" points="301.481,77.025 301.44,76.989 301.358,77.071 	"/>
</g>
<path style="fill:#1BB7EA;" d="M211.553,210.729c-5.581,5.806-13.414,9.431-22.103,9.431c-16.978,0-30.73-13.757-30.73-30.725
	c0-8.689,3.62-16.522,9.426-22.108l-28.984-28.984L77.619,301.261l162.918-61.548L211.553,210.729z"/>
<path style="fill:#1F4254;" d="M139.162,138.342l28.984,28.984c5.524-5.32,13.025-8.607,21.304-8.607
	c16.957,0,30.71,13.752,30.71,30.715c0,8.274-3.292,15.775-8.607,21.294l28.984,28.984L302.08,76.8L139.162,138.342z"/>
<path style="fill:#C5CED3;" d="M189.44,15.355c95.99,0,174.08,78.1,174.08,174.08c0,95.99-78.09,174.085-174.08,174.085
	S15.36,285.425,15.36,189.435C15.36,93.455,93.45,15.355,189.44,15.355 M189.44,0C84.797,0,0,84.813,0,189.435
	C0,294.067,84.803,378.88,189.44,378.88c104.632,0,189.44-84.813,189.44-189.445C378.88,84.813,294.072,0,189.44,0"/>
<g>
</g>
<g>
</g>
<g>
</g>
<g>
</g>
<g>
</g>
<g>
</g>
<g>
</g>
<g>
</g>
<g>
</g>
<g>
</g>
<g>
</g>
<g>
</g>
<g>
</g>
<g>
</g>
<g>
</g>
</svg>
